# xmcd
#
# Track frame offsets: 
#        150
#        18193
#        33744
#        51566
#        67225
#        83579
#        101011
#        117299
#        132673
#        150349
#        165352
#
# Disc length: 2414 seconds
#
# Revision: 0
# Processed by: cddbd v1.5.2PL0 Copyright (c) Steve Scherf et al.
# Submitted via: ExactAudioCopy v0.99pb4
#
DISCID=8f096c0b
DTITLE=แสนสุข แดนดำเนิน - ปัดฝุ่น รุ่นพิเศษ 14
DYEAR=2009
DGENRE=Country
TTITLE0=เกี้ยวไม่เป็น
TTITLE1=อย่าลืมสุพรรณบุรี
TTITLE2=ภูเก็ต
TTITLE3=แฟนจ๋าอย่างอน
TTITLE4=ไอ้หนุ่มเรือทราย
TTITLE5=คิดจนผอม
TTITLE6=โธ่สาหร่าย
TTITLE7=จากไป3ปี
TTITLE8=ปากพนัง
TTITLE9=หนุ่มแตรวง
TTITLE10=ไก่ขันอีกแล้ว
EXTD=
EXTT0=
EXTT1=
EXTT2=
EXTT3=
EXTT4=
EXTT5=
EXTT6=
EXTT7=
EXTT8=
EXTT9=
EXTT10=
PLAYORDER=
